# AST/ASF file generated using VICON BodyLanguage
# -----------------------------------------------
:version 1.10
:name VICON
:units
  mass 1.0
  length 0.45
  angle deg
:documentation
   .ast/.asf automatically generated from VICON data using
   VICON BodyBuilder and BodyLanguage model FoxedUp or BRILLIANT.MOD
:root
   order TX TY TZ RX RY RZ
   axis XYZ
   position 0 0 0  
   orientation 0 0 0 
:bonedata
  begin
     id 1 
     name lhipjoint
     direction 0.54267 -0.795011 0.271047 
     length 2.39899 
     axis 0 0 0  XYZ
  end
  begin
     id 2 
     name lfemur
     direction 0.34202 -0.939693 0  
     length 7.49701  
     axis 0 0 20  XYZ
    dof rx ry rz
    limits (-160.0 20.0)
           (-70.0 70.0)
           (-60.0 70.0)
  end
  begin
     id 3 
     name ltibia
     direction 0.34202 -0.939693 0   
     length 8.1668   
     axis 0 0 20   XYZ
    dof rx
    limits (-10.0 170.0)
  end
  begin
     id 4 
     name lfoot
     direction 0.0736283 -0.202292 0.976554   
     length 2.13544   
     axis -90 7.62852e-016 20   XYZ
    dof rx rz
    limits (-45.0 90.0)
           (-70.0 20.0)
  end
  begin
     id 5 
     name ltoes
     direction 1.53557e-011 -4.22024e-011 1   
     length 1.07411   
     axis -90 7.62852e-016 20   XYZ
    dof rx
    limits (-90.0 20.0)
  end
  begin
     id 6 
     name rhipjoint
     direction -0.538061 -0.797813 0.272002   
     length 2.39057  
     axis 0 0 0  XYZ 
  end
  begin
     id 7 
     name rfemur
     direction -0.34202 -0.939693 0   
     length 7.50152   
     axis 0 0 -20   XYZ
    dof rx ry rz
    limits (-160.0 20.0)
           (-70.0 70.0)
           (-70.0 60.0)
  end
  begin
     id 8 
     name rtibia
     direction -0.34202 -0.939693 0   
     length 8.05793   
     axis 0 0 -20   XYZ
    dof rx
    limits (-10.0 170.0)
 end
 begin
     id 9 
     name rfoot
     direction -0.0765195 -0.210236 0.974652   
     length 2.28698  
     axis -90 -7.62852e-016 -20   XYZ
    dof rx rz
    limits (-45.0 90.0)
           (-20.0 70.0)
  end
  begin
     id 10 
     name rtoes
     direction -1.53542e-011 -4.21847e-011 1   
     length 1.14762   
     axis -90 -7.62852e-016 -20   XYZ
    dof rx
    limits (-90.0 20.0)
  end
  begin
     id 11 
     name lowerback
     direction -0.0217239 0.996592 -0.0795765   
     length 2.08176   
     axis 0 0 0   XYZ
    dof rx ry rz
    limits (-20.0 45.0)
           (-30.0 30.0)
           (-30.0 30.0)
  end
  begin
     id 12 
     name upperback
     direction -0.00563773 0.999651 -0.0258155   
     length 2.08898   
     axis 0 0 0   XYZ
    dof rx ry rz
    limits (-20.0 45.0)
           (-30.0 30.0)
           (-30.0 30.0)
  end
  begin
     id 13 
     name thorax
     direction 0.0032706 0.999923 0.0119599   
     length 2.0968   
     axis 0 0 0   XYZ
    dof rx ry rz
    limits (-20.0 45.0)
           (-30.0 30.0)
           (-30.0 30.0)
  end
  begin
     id 14 
     name lowerneck
     direction -0.0285886 0.99568 0.0883427   
     length 1.81272   
     axis 0 0 0   XYZ
    dof rx ry rz
    limits (-20.0 45.0)
           (-30.0 30.0)
           (-30.0 30.0)
  end
  begin
     id 15 
     name upperneck
     direction 0.0807535 0.97985 -0.18268   
     length 1.82518   
     axis 0 0 0   XYZ
    dof rx ry rz
    limits (-20.0 45.0)
           (-30.0 30.0)
           (-30.0 30.0)
  end
  begin
     id 16
     name head
     direction 0.0236605 0.997053 -0.0729767  
     length 1.84443  
     axis 0 0 0   XYZ
    dof rx ry rz
    limits (-20.0 45.0)
           (-30.0 30.0)
           (-30.0 30.0)
  end
  begin
     id 17 
     name lclavicle
     direction 0.918986 0.39378 -0.0200683  
     length 3.27822  
     axis 0 0 0   XYZ
    dof ry rz
    limits (-20.0 10.0)
           (0.0 20.0)
  end
  begin
     id 18 
     name lhumerus
     direction 1 -4.4897e-011 2.09544e-027   
     length 5.5568   
     axis 180 -30 -90   XYZ
    dof rx ry rz
    limits (-60.0 90.0)
           (-90.0 90.0)
           (-90.0 90.0)
  end
  begin
     id 19
     name lradius
     direction 1 -4.48957e-011 -1.27696e-026   
     length 3.63979   
     axis 180 -30 -90   XYZ
    dof rx
    limits (-10.0 170.0)
  end
  begin
     id 20
     name lwrist
     direction 1 -4.49001e-011 -1.49001e-026   
     length 1.8199   
     axis 9.0955e-015 90 90   XYZ
    dof ry
    limits (-180.0 0.0)
 end
  begin
     id 21 
     name lhand
     direction 1 -4.48709e-011 -2.9758e-026   
     length 0.569419   
     axis 1.90115e-014 90 90   XYZ
    dof rx rz
    limits (-90.0 90.0)
           (-45.0 45.0)
  end
  begin
     id 22 
     name lfingers
     direction 1 -4.49175e-011 -5.96505e-026   
     length 0.45908   
     axis 3.80223e-014 90 90   XYZ
    dof rx
    limits (0.0 90.0)
  end
  begin
     id 23
     name lthumb
     direction 0.707107 -6.34864e-011 0.707107   
     length 0.65915   
     axis -90 45 -3.84942e-014   XYZ
    dof rx rz
    limits (-45.0 45.0)
           (-45.0 45.0)
  end
  begin
     id 24 
     name rclavicle
     direction -0.911913 0.396426 -0.106115   
     length 3.46301  
     axis 0 0 0   XYZ 
    dof ry rz
    limits (-10.0 20.0)
           (-20.0 0.0)
  end
  begin
     id 25 
     name rhumerus
     direction -1 -4.48965e-011 7.78516e-028  
     length 5.34339   
     axis 180 30 90   XYZ
    dof rx ry rz
    limits (-90.0 60.0)
           (-90.0 90.0)
           (-90.0 90.0)
  end
  begin
     id 26 
     name rradius
     direction -1 -4.48948e-011 -5.79823e-027   
     length 3.65101   
     axis 180 30 90   XYZ
    dof rx
    limits (-10.0 170.0)
  end
  begin
     id 27 
     name rwrist
     direction -1 -4.48995e-011 -1.48996e-026   
     length 1.8255   
     axis 9.0955e-015 -90 -90   XYZ
    dof ry
    limits (-180.0 0.0)
  end
  begin
     id 28
     name rhand
     direction -1 -4.48957e-011 -2.97937e-026   
     length 0.694249   
     axis 1.90115e-014 -90 -90   XYZ
    dof rx rz
    limits (-90.0 90.0)
           (-45.0 45.0)
  end
  begin
     id 29
     name rfingers
     direction -1 -4.4898e-011 -5.95943e-026   
     length 0.559721   
     axis 3.80223e-014 -90 -90   XYZ
    dof rx
    limits (0.0 90.0)
  end
  begin
     id 30
     name rthumb
     direction -0.707107 -6.34969e-011 0.707107   
     length 0.803651   
     axis -90 -45 3.84942e-014   XYZ
    dof rx rz
    limits (-45.0 45.0)
           (-45.0 45.0)
  end
:hierarchy
  begin
    root lhipjoint rhipjoint lowerback
    lhipjoint lfemur
    lfemur ltibia
    ltibia lfoot
    lfoot ltoes
    rhipjoint rfemur
    rfemur rtibia
    rtibia rfoot
    rfoot rtoes
    lowerback upperback
    upperback thorax
    thorax lowerneck lclavicle rclavicle
    lowerneck upperneck
    upperneck head
    lclavicle lhumerus
    lhumerus lradius
    lradius lwrist
    lwrist lhand lthumb
    lhand lfingers
    rclavicle rhumerus
    rhumerus rradius
    rradius rwrist
    rwrist rhand rthumb
    rhand rfingers
  end

#!OML:ASF H:\Terrain\Walking\May29\JustinRory\rory.ASF
:FULLY-SPECIFIED
:DEGREES
223
root 10.7404 15.8916 -14.5174 -17.6474 74.3912 -18.4379
lowerback 17.3932 -0.323278 2.32937
upperback 7.76636 0.440865 2.79392
thorax -1.46003 0.396121 1.53862
lowerneck 4.48436 -23.29 -15.3908
upperneck -9.09137 -31.7361 32.3621
head 4.6383 -16.4256 9.29529
rclavicle -1.20265e-014 1.19271e-014
rhumerus -0.40929 -60.7366 -16.8925
rradius 9.50901
rwrist 58.2272
rhand -19.2519 8.78707
rfingers 7.12502
rthumb 7.06204 -21.0751
lclavicle -1.20265e-014 1.19271e-014
lhumerus -36.3744 14.8322 12.0403
lradius 48.5629
lwrist 14.8324
lhand -26.5889 22.7724
lfingers 7.12502
lthumb -0.0230376 52.7521
rfemur -17.0135 12.8137 -7.34083
rtibia 34.8942
rfoot -6.80162 -14.0668
rtoes -22.2341
lfemur -34.5882 3.69914 -10.2023
ltibia 69.7574
lfoot -30.7826 0.0971899
ltoes -15.6437
224
root 10.698 15.7532 -14.3351 -21.7467 74.3168 -22.5244
lowerback 17.8072 -0.514029 3.12848
upperback 7.77088 0.348443 2.79065
thorax -1.66323 0.370161 1.10112
lowerneck 4.45737 -23.1737 -14.9408
upperneck -9.46964 -31.4704 32.8785
head 4.51096 -16.3387 9.47725
rclavicle -1.88845e-014 2.80286e-014
rhumerus -1.9232 -60.7367 -16.0291
rradius 9.93367
rwrist 57.631
rhand -19.3654 8.96641
rfingers 7.12502
rthumb 6.95242 -20.8994
lclavicle -1.88845e-014 2.80286e-014
lhumerus -36.0868 15.2308 10.9113
lradius 50.4308
lwrist 16.6837
lhand -27.1054 22.7214
lfingers 7.12502
lthumb -0.521867 52.7006
rfemur -17.1302 13.0336 -6.14298
rtibia 36.28
rfoot -12.6538 -11.1307
rtoes -4.77659
lfemur -35.5693 3.02598 -8.27272
ltibia 71.7138
lfoot -31.1763 0.724735
ltoes -16.8767
225
root 10.6638 15.6286 -14.1768 -24.9351 74.2053 -25.1867
lowerback 18.7471 -0.769859 3.86163
upperback 7.85379 0.207242 2.7446
thorax -2.05585 0.321183 0.668123
lowerneck 4.89807 -22.9879 -15.5154
upperneck -10.0882 -31.2237 33.9814
head 4.54202 -16.3059 9.96581
rclavicle -2.38045e-014 1.12313e-014
rhumerus -3.26664 -60.5967 -15.1722
rradius 10.4082
rwrist 57.3149
rhand -19.3382 9.16477
rfingers 7.12502
rthumb 6.97865 -20.7002
lclavicle -2.38045e-014 1.12313e-014
lhumerus -36.2084 15.504 9.95482
lradius 52.4488
lwrist 18.3525
lhand -27.33 23.0926
lfingers 7.12502
lthumb -0.738846 53.0711
rfemur -16.9731 12.2459 -5.11373
rtibia 37.6998
rfoot -16.2774 -7.66791
rtoes 8.5211
lfemur -35.8647 2.20744 -6.89345
ltibia 73.4933
lfoot -31.45 2.10564
ltoes -19.7459
226
root 10.6417 15.5638 -14.0545 -26.7038 73.9849 -26.1316
lowerback 19.7536 -0.968912 4.096
upperback 8.17332 0.0738577 2.70326
thorax -2.23023 0.276109 0.523783
lowerneck 5.14534 -22.8455 -15.8185
upperneck -10.8945 -30.9363 34.8761
head 4.45057 -16.2575 10.3745
rclavicle -1.73937e-016 1.27222e-014
rhumerus -3.70305 -59.4981 -15.0869
rradius 10.7215
rwrist 55.7836
rhand -19.1871 8.75988
rfingers 7.12502
rthumb 7.12452 -21.1002
lclavicle -1.73937e-016 1.27222e-014
lhumerus -36.752 16.3165 8.98153
lradius 54.2216
lwrist 19.2404
lhand -28.1513 22.8898
lfingers 7.12502
lthumb -1.53208 52.864
rfemur -17.1379 9.25 -3.70141
rtibia 39.2143
rfoot -13.3253 -11.5896
rtoes -28.0875
lfemur -35.5352 1.30296 -6.15169
ltibia 74.9845
lfoot -31.5628 3.7913
ltoes -22.2133
227
root 10.6191 15.4839 -13.942 -28.7892 73.2368 -27.8494
lowerback 20.2897 -1.02789 4.39398
upperback 8.54573 0.117414 2.93834
thorax -2.09974 0.320214 0.599607
lowerneck 5.04509 -22.7204 -15.6533
upperneck -11.7155 -30.5623 35.4943
head 4.25192 -16.1475 10.6479
rclavicle -5.50385e-015 -5.94366e-014
rhumerus -3.47477 -57.8692 -15.3524
rradius 10.9964
rwrist 52.4734
rhand -19.5124 8.53137
rfingers 7.12502
rthumb 6.81054 -21.3391
lclavicle -5.50385e-015 -5.94366e-014
lhumerus -37.4272 17.988 8.1962
lradius 55.6903
lwrist 19.018
lhand -28.3211 20.8545
lfingers 7.12502
lthumb -1.69606 50.8275
rfemur -17.7691 7.4736 -2.31109
rtibia 40.5833
rfoot -13.1343 -12.1185
rtoes -35.3868
lfemur -35.7589 0.752476 -4.92838
ltibia 76.662
lfoot -31.3909 5.15902
ltoes -22.6212
228
root 10.5986 15.4185 -13.8461 -30.2271 72.246 -29.481
lowerback 20.4457 -0.945192 5.01898
upperback 8.75317 0.370286 3.1627
thorax -1.94362 0.46781 0.433012
lowerneck 4.76874 -22.7235 -15.3632
upperneck -12.354 -30.375 35.9604
head 4.12396 -16.0996 10.787
rclavicle 1.01629e-014 2.87244e-014
rhumerus -4.01347 -55.9963 -14.9407
rradius 11.4231
rwrist 48.4487
rhand -21.0886 8.92303
rfingers 7.12502
rthumb 5.28877 -20.991
lclavicle 1.01629e-014 2.87244e-014
lhumerus -37.7205 17.0396 7.76998
lradius 58.2944
lwrist 23.5404
lhand -29.5057 21.5183
lfingers 7.12502
lthumb -2.8401 51.4791
rfemur -18.941 6.72629 -1.22439
rtibia 41.8871
rfoot -14.299 -11.0532
rtoes -35.1007
lfemur -36.623 0.515573 -3.66082
ltibia 78.399
lfoot -30.993 6.64316
ltoes -22.7273
229
root 10.5816 15.3661 -13.7575 -29.725 71.5492 -29.2411
lowerback 20.3929 -0.815592 5.03426
upperback 8.93806 0.537389 3.21295
thorax -1.71282 0.559112 0.443466
lowerneck 4.47538 -22.6748 -15.0929
upperneck -12.797 -30.1551 36.2376
head 4.00945 -16.017 10.8759
rclavicle -1.38016e-014 3.65267e-015
rhumerus -4.4619 -53.5256 -14.7254
rradius 11.6035
rwrist 44.0468
rhand -24.3405 9.85073
rfingers 7.12502
rthumb 2.14854 -20.1182
lclavicle -1.38016e-014 3.65267e-015
lhumerus -39.2142 19.6213 8.55978
lradius 61.451
lwrist 23.6131
lhand -30.8669 21.5588
lfingers 7.12502
lthumb -4.15465 51.498
rfemur -20.0526 6.51202 -1.03058
rtibia 42.9471
rfoot -15.5576 -9.11401
rtoes -33.0226
lfemur -37.606 0.290166 -3.20092
ltibia 80.1093
lfoot -30.57 8.24424
ltoes -22.6057
230
root 10.5688 15.3143 -13.6711 -28.0422 71.1494 -27.6421
lowerback 20.4613 -0.612179 4.36378
upperback 9.06171 0.677831 3.20085
thorax -1.6219 0.614967 0.779484
lowerneck 4.32856 -22.5946 -14.8141
upperneck -13.0666 -29.9322 36.3111
head 3.87381 -15.9298 10.9228
rclavicle 3.85145e-016 -3.76852e-014
rhumerus -4.92204 -50.3894 -14.5955
rradius 11.9881
rwrist 38.009
rhand -26.2372 11.0151
rfingers 7.12502
rthumb 0.316632 -18.9644
lclavicle 3.85145e-016 -3.76852e-014
lhumerus -39.6788 19.5885 8.51989
lradius 63.4565
lwrist 26.0531
lhand -33.098 21.9906
lfingers 7.12502
lthumb -6.30878 51.8767
rfemur -20.9298 6.60991 -1.51102
rtibia 43.9315
rfoot -17.3025 -6.41429
rtoes -27.4895
lfemur -38.4473 -0.102189 -3.42574
ltibia 81.6997
lfoot -29.9216 9.85767
ltoes -20.3947
231
root 10.5545 15.2703 -13.5917 -25.5822 70.9059 -25.2713
lowerback 20.6509 -0.313455 3.48401
upperback 9.02854 0.900687 3.06579
thorax -1.76524 0.699251 1.08356
lowerneck 4.41364 -22.6175 -14.5187
upperneck -13.2767 -29.8843 36.3829
head 3.75457 -15.9451 10.9505
rclavicle 3.72411e-015 -2.71838e-014
rhumerus -5.53924 -51.9253 -14.4602
rradius 12.4612
rwrist 35.1411
rhand -25.8416 11.5429
rfingers 7.12502
rthumb 0.698695 -18.4357
lclavicle 3.72411e-015 -2.71838e-014
lhumerus -40.3788 20.2547 9.34875
lradius 65.8974
lwrist 26.8887
lhand -35.489 22.1244
lfingers 7.12502
lthumb -8.61668 51.9285
rfemur -21.8215 6.98565 -2.45686
rtibia 44.9125
rfoot -19.1909 -1.89087
rtoes -11.2463
lfemur -39.3292 -0.499783 -4.08149
ltibia 83.1207
lfoot -29.0821 10.9526
ltoes -14.9181
232
root 10.5375 15.2505 -13.5129 -23.6655 70.6336 -23.2188
lowerback 21.0168 -0.137335 2.51865
upperback 9.09616 0.960908 2.96186
thorax -1.89215 0.706326 1.50497
lowerneck 4.3754 -22.5164 -14.3738
upperneck -13.3026 -29.7161 36.3903
head 3.69203 -15.8708 10.9819
rclavicle 3.09234e-014 -1.77912e-014
rhumerus -5.48019 -52.4511 -15.1146
rradius 13.0403
rwrist 30.8837
rhand -25.83 11.9012
rfingers 7.12502
rthumb 0.709948 -18.0774
lclavicle 3.09234e-014 -1.77912e-014
lhumerus -41.5255 21.5273 10.4784
lradius 68.2974
lwrist 26.6299
lhand -37.5885 22.361
lfingers 7.12502
lthumb -10.6424 52.0715
rfemur -22.5553 7.08575 -2.89971
rtibia 45.8463
rfoot -19.5586 -0.165143
rtoes -5.5909
lfemur -39.9017 -0.800079 -4.70139
ltibia 84.3442
lfoot -28.2745 11.859
ltoes -8.4347
233
root 10.5281 15.2541 -13.4391 -22.8059 70.201 -21.9531
lowerback 21.553 -0.0950446 1.66364
upperback 9.26409 0.880151 2.94812
thorax -1.99029 0.64984 1.99326
lowerneck 4.32055 -22.2549 -14.5642
upperneck -13.0566 -29.4298 36.5218
head 3.76639 -15.7108 11.0988
rclavicle 1.62755e-014 -4.41799e-014
rhumerus -4.98248 -50.6926 -16.3088
rradius 13.8447
rwrist 24.4078
rhand -26.116 13.5129
rfingers 7.12502
rthumb 0.43367 -16.4664
lclavicle 1.62755e-014 -4.41799e-014
lhumerus -42.8997 22.5265 11.3147
lradius 70.4144
lwrist 26.7823
lhand -39.1925 22.9849
lfingers 7.12502
lthumb -12.1892 52.6097
rfemur -23.1649 6.67185 -2.42817
rtibia 46.739
rfoot -18.7585 -4.80806
rtoes -28.1589
lfemur -40.0763 -0.992055 -5.13509
ltibia 85.3519
lfoot -27.207 13.3214
ltoes -3.36817
234
root 10.5216 15.2367 -13.3682 -21.9369 69.7737 -20.7634
lowerback 21.9829 -0.103794 0.82444
upperback 9.35239 0.715089 2.85229
thorax -2.11144 0.550179 2.40647
lowerneck 4.51885 -21.9398 -14.6943
upperneck -12.6849 -29.1109 36.8228
head 3.8529 -15.5585 11.3037
rclavicle -2.34069e-014 2.45499e-014
rhumerus -4.26508 -50.1804 -17.8166
rradius 14.6661
rwrist 19.2211
rhand -26.3718 14.9162
rfingers 7.12502
rthumb 0.186621 -15.0634
lclavicle -2.34069e-014 2.45499e-014
lhumerus -44.2504 22.9854 11.9944
lradius 72.4006
lwrist 27.2083
lhand -40.8715 23.9764
lfingers 7.12502
lthumb -13.8077 53.4981
rfemur -23.3225 7.79147 -2.75384
rtibia 47.4402
rfoot -20.0157 -1.46935
rtoes -13.5634
lfemur -40.477 -1.07266 -5.59569
ltibia 86.3865
lfoot -26.2563 14.0505
ltoes 1.50863
235
root 10.5193 15.2312 -13.3143 -21.3456 69.563 -19.9532
lowerback 22.3967 -0.192639 0.176873
upperback 9.37189 0.476822 2.75913
thorax -2.2881 0.41907 2.73302
lowerneck 4.66856 -21.7362 -14.4268
upperneck -12.2786 -28.8967 36.7808
head 3.83964 -15.4518 11.335
rclavicle 3.21037e-014 -2.98177e-015
rhumerus -3.44258 -50.6667 -19.3375
rradius 15.4367
rwrist 14.9795
rhand -27.5377 15.8499
rfingers 7.12502
rthumb -0.939421 -14.1278
lclavicle 3.21037e-014 -2.98177e-015
lhumerus -45.1326 23.242 13.1249
lradius 74.0309
lwrist 27.3433
lhand -42.6893 24.3106
lfingers 7.12502
lthumb -15.5592 53.7047
rfemur -23.469 8.20639 -2.84155
rtibia 47.9492
rfoot -20.3768 -0.807953
rtoes -10.1396
lfemur -40.9576 -1.34121 -6.15155
ltibia 87.2884
lfoot -25.8978 14.1183
ltoes 4.58584
236
root 10.5258 15.2427 -13.2751 -22.3465 69.2971 -20.9507
lowerback 22.6846 -0.323559 0.343402
upperback 9.34928 0.355698 2.86253
thorax -2.44958 0.362823 2.77952
lowerneck 4.75864 -21.7208 -14.0322
upperneck -11.8878 -28.9215 36.5558
head 3.82821 -15.4524 11.2261
rclavicle 5.30755e-014 4.77083e-015
rhumerus -3.30408 -50.785 -20.1834
rradius 16.4399
rwrist 9.88065
rhand -28.4185 16.239
rfingers 7.12502
rthumb -1.79013 -13.7332
lclavicle 5.30755e-014 4.77083e-015
lhumerus -45.4197 23.2386 14.9032
lradius 75.4204
lwrist 27.1331
lhand -44.2417 24.4195
lfingers 7.12502
lthumb -17.0539 53.691
rfemur -23.4832 8.41039 -2.16149
rtibia 48.1821
rfoot -20.451 -0.968846
rtoes -9.68189
lfemur -41.524 -1.62061 -6.13897
ltibia 88.0613
lfoot -25.8323 14.0106
ltoes 3.1926
